<svg width="228" height="228" viewBox="0 0 228 228" fill="none" xmlns="http://www.w3.org/2000/svg">
<path d="M128.505 56.8793C140.14 45.2446 159.003 45.2446 170.638 56.8793C182.273 68.5139 182.273 87.3775 170.638 99.0121C159.003 110.647 115.233 115.233 113.759 113.759C112.284 112.284 116.871 68.5139 128.505 56.8793Z" fill="white"/>
<path d="M170.638 128.505C182.273 140.14 182.273 159.003 170.638 170.638C159.003 182.273 140.14 182.273 128.505 170.638C116.871 159.003 112.284 115.233 113.759 113.759C115.233 112.284 159.003 116.87 170.638 128.505Z" fill="white"/>
<path d="M99.0123 170.638C87.3776 182.273 68.5141 182.273 56.8794 170.638C45.2447 159.003 45.2447 140.14 56.8794 128.505C68.514 116.87 112.284 112.284 113.759 113.759C115.233 115.233 110.647 159.003 99.0123 170.638Z" fill="white"/>
<path d="M99.0123 170.638C87.3776 182.273 68.5141 182.273 56.8794 170.638C45.2447 159.003 45.2447 140.14 56.8794 128.505C68.514 116.87 112.284 112.284 113.759 113.759C115.233 115.233 110.647 159.003 99.0123 170.638Z" fill="white"/>
<path d="M56.8794 99.0121C45.2447 87.3775 45.2447 68.5139 56.8794 56.8793C68.5141 45.2446 87.3776 45.2446 99.0123 56.8793C110.647 68.5139 115.233 112.284 113.759 113.759C112.284 115.233 68.5141 110.647 56.8794 99.0121Z" fill="white"/>
</svg>
